# xmcd
#
# Track frame offsets:
#	150
#	14472
#	29535
#	44764
#	56026
#	77620
#	88741
#	99510
#	110786
#	126029
#	142515
#	162762
#
# Disc length: 2265 seconds
#
# Revision: 1
# Processed by: cddbd v1.5.2PL0 Copyright (c) Steve Scherf et al.
# Submitted via: audiograbber 1.83.01
#
DISCID=9a08d70c
DTITLE=Wangenheim, Alexander von - blue vineyard
DYEAR=2006
DGENRE=Boogie Woogie
TTITLE0=01-South side boogie
TTITLE1=02-Border song
TTITLE2=03-Dust my broom
TTITLE3=04-Cadillac assembly line
TTITLE4=05-Jessie
TTITLE5=06-Jeans on
TTITLE6=07-Home again
TTITLE7=08-Rock me baby
TTITLE8=09-Vienna
TTITLE9=10-Dirty dozen
TTITLE10=11-Almaz
TTITLE11=12-Vielen Dank
EXTD=
EXTT0=
EXTT1=
EXTT2=
EXTT3=
EXTT4=
EXTT5=
EXTT6=
EXTT7=
EXTT8=
EXTT9=
EXTT10=
EXTT11=
PLAYORDER=
